{"accessors" : [{"bufferView" : 0, "byteOffset" : 0, "componentType" : 5123, "count" : 348, "type" : "SCALAR", "max" : [283], "min" : [0]}, {"bufferView" : 1, "byteOffset" : 0, "componentType" : 5126, "count" : 284, "type" : "VEC3", "max" : [-16.389999389648438, 0.8265219926834106, 0.8265219926834106], "min" : [-19.72100067138672, -0.8265230059623718, -0.8265219926834106], "name" : "POSITION"}, {"bufferView" : 1, "byteOffset" : 12, "componentType" : 5126, "count" : 284, "type" : "VEC2", "max" : [1.211590051651001, 4.750549793243408], "min" : [0, -1.1434299945831299], "name" : "TEXCOORD_0"}, {"bufferView" : 1, "byteOffset" : 20, "componentType" : 5126, "count" : 284, "type" : "VEC3", "max" : [4.2319367565823995E-08, 0.9681517481803894, 0.9681517481803894], "min" : [-1.0000044107437134, -0.9681517481803894, -0.9681517481803894], "name" : "NORMAL"}, {"bufferView" : 0, "byteOffset" : 696, "componentType" : 5123, "count" : 1914, "type" : "SCALAR", "max" : [1567], "min" : [0]}, {"bufferView" : 2, "byteOffset" : 0, "componentType" : 5126, "count" : 1568, "type" : "VEC3", "max" : [16.290000915527344, 0.8265219926834106, 0.8265219926834106], "min" : [-19.3799991607666, -0.8265230059623718, -1.6811800003051758], "name" : "POSITION"}, {"bufferView" : 2, "byteOffset" : 12, "componentType" : 5126, "count" : 1568, "type" : "VEC2", "max" : [1.0757100582122803, 2.0267300605773926], "min" : [-0.17142899334430695, -1.0757100582122803], "name" : "TEXCOORD_0"}, {"bufferView" : 2, "byteOffset" : 20, "componentType" : 5126, "count" : 1568, "type" : "VEC3", "max" : [1.0000044107437134, 1.0000044107437134, 1.0000044107437134], "min" : [-1.0000044107437134, -1.0000044107437134, -1.0000044107437134], "name" : "NORMAL"}, {"bufferView" : 0, "byteOffset" : 4524, "componentType" : 5123, "count" : 1110, "type" : "SCALAR", "max" : [919], "min" : [0]}, {"bufferView" : 3, "byteOffset" : 0, "componentType" : 5126, "count" : 920, "type" : "VEC3", "max" : [19.030000686645508, 0.9861239790916443, 0.881181001663208], "min" : [-16.389999389648438, -0.9861239790916443, -0.881181001663208], "name" : "POSITION"}, {"bufferView" : 3, "byteOffset" : 12, "componentType" : 5126, "count" : 920, "type" : "VEC2", "max" : [1, -0], "min" : [0, -1], "name" : "TEXCOORD_0"}, {"bufferView" : 3, "byteOffset" : 20, "componentType" : 5126, "count" : 920, "type" : "VEC3", "max" : [1.0000044107437134, 0.9681517481803894, 0.9681517481803894], "min" : [-1.0000044107437134, -0.9681517481803894, -0.9681517481803894], "name" : "NORMAL"}], "asset" : {"generator" : "Aspose.3D 22.10", "version" : "2.0"}, "buffers" : [{"uri" : "data:application/octet-stream;base64,", "byteLength" : 114664}], "bufferViews" : [{"buffer" : 0, "byteOffset" : 0, "byteLength" : 6744, "target" : 34963}, {"buffer" : 0, "byteOffset" : 6748, "byteLength" : 11136, "byteStride" : 32, "target" : 34962}, {"buffer" : 0, "byteOffset" : 17888, "byteLength" : 61248, "byteStride" : 32, "target" : 34962}, {"buffer" : 0, "byteOffset" : 79140, "byteLength" : 35520, "byteStride" : 32, "target" : 34962}], "meshes" : [{"primitives" : [{"attributes" : {"POSITION" : 1, "TEXCOORD_0" : 2, "NORMAL" : 3}, "indices" : 0, "mode" : 4}, {"attributes" : {"POSITION" : 5, "TEXCOORD_0" : 6, "NORMAL" : 7}, "indices" : 4, "mode" : 4}, {"attributes" : {"POSITION" : 9, "TEXCOORD_0" : 10, "NORMAL" : 11}, "indices" : 8, "mode" : 4}], "name" : ""}], "nodes" : [{"mesh" : 0, "name" : "Default"}], "scene" : 0, "scenes" : [{"nodes" : [0]}]}